<mxfile host="app.diagrams.net" agent="Mozilla/5.0 (Windows NT 10.0; Win64; x64) AppleWebKit/537.36 (KHTML, like Gecko) Chrome/129.0.0.0 Safari/537.36" version="24.7.16">
  <diagram id="R2lEEEUBdFMjLlhIrx00" name="Page-1">
    <mxGraphModel dx="1430" dy="763" grid="1" gridSize="10" guides="1" tooltips="1" connect="1" arrows="1" fold="1" page="1" pageScale="1" pageWidth="850" pageHeight="1100" math="0" shadow="0" extFonts="Permanent Marker^https://fonts.googleapis.com/css?family=Permanent+Marker">
      <root>
        <mxCell id="0" />
        <mxCell id="1" parent="0" />
        <mxCell id="DKl5OKaElGuwXRDvWini-32" style="rounded=0;orthogonalLoop=1;jettySize=auto;html=1;endArrow=none;endFill=0;" edge="1" parent="1" source="DKl5OKaElGuwXRDvWini-6" target="DKl5OKaElGuwXRDvWini-30">
          <mxGeometry relative="1" as="geometry" />
        </mxCell>
        <mxCell id="DKl5OKaElGuwXRDvWini-33" style="rounded=0;orthogonalLoop=1;jettySize=auto;html=1;endArrow=none;endFill=0;" edge="1" parent="1" source="DKl5OKaElGuwXRDvWini-6" target="DKl5OKaElGuwXRDvWini-28">
          <mxGeometry relative="1" as="geometry" />
        </mxCell>
        <mxCell id="DKl5OKaElGuwXRDvWini-34" style="rounded=0;orthogonalLoop=1;jettySize=auto;html=1;endArrow=none;endFill=0;" edge="1" parent="1" source="DKl5OKaElGuwXRDvWini-6" target="DKl5OKaElGuwXRDvWini-29">
          <mxGeometry relative="1" as="geometry" />
        </mxCell>
        <mxCell id="DKl5OKaElGuwXRDvWini-6" value="Screenplay" style="whiteSpace=wrap;html=1;" vertex="1" parent="1">
          <mxGeometry x="365" y="115" width="120" height="60" as="geometry" />
        </mxCell>
        <mxCell id="DKl5OKaElGuwXRDvWini-10" value="Scenes" style="shape=ext;margin=3;whiteSpace=wrap;html=1;align=center;" vertex="1" parent="1">
          <mxGeometry x="560" y="210" width="100" height="40" as="geometry" />
        </mxCell>
        <mxCell id="DKl5OKaElGuwXRDvWini-13" value="story-location" style="ellipse;whiteSpace=wrap;html=1;align=center;" vertex="1" parent="1">
          <mxGeometry x="693" y="176" width="100" height="40" as="geometry" />
        </mxCell>
        <mxCell id="DKl5OKaElGuwXRDvWini-15" value="filming-location" style="ellipse;whiteSpace=wrap;html=1;align=center;" vertex="1" parent="1">
          <mxGeometry x="667" y="220" width="100" height="40" as="geometry" />
        </mxCell>
        <mxCell id="DKl5OKaElGuwXRDvWini-17" value="Actor" style="whiteSpace=wrap;html=1;align=center;" vertex="1" parent="1">
          <mxGeometry x="570" y="460" width="100" height="40" as="geometry" />
        </mxCell>
        <mxCell id="DKl5OKaElGuwXRDvWini-20" value="Take" style="shape=ext;margin=3;double=1;whiteSpace=wrap;html=1;align=center;" vertex="1" parent="1">
          <mxGeometry x="260" y="350" width="100" height="40" as="geometry" />
        </mxCell>
        <mxCell id="DKl5OKaElGuwXRDvWini-28" value="screenplayID" style="ellipse;whiteSpace=wrap;html=1;align=center;fontStyle=4" vertex="1" parent="1">
          <mxGeometry x="330" y="50" width="100" height="40" as="geometry" />
        </mxCell>
        <mxCell id="DKl5OKaElGuwXRDvWini-29" value="title" style="ellipse;whiteSpace=wrap;html=1;align=center;" vertex="1" parent="1">
          <mxGeometry x="500" y="90" width="70" height="30" as="geometry" />
        </mxCell>
        <mxCell id="DKl5OKaElGuwXRDvWini-30" value="author" style="ellipse;whiteSpace=wrap;html=1;align=center;" vertex="1" parent="1">
          <mxGeometry x="440" y="60" width="70" height="30" as="geometry" />
        </mxCell>
        <mxCell id="DKl5OKaElGuwXRDvWini-38" value="" style="endArrow=none;html=1;rounded=0;shape=link;" edge="1" parent="1" source="DKl5OKaElGuwXRDvWini-136" target="DKl5OKaElGuwXRDvWini-138">
          <mxGeometry relative="1" as="geometry">
            <mxPoint x="160" y="145" as="sourcePoint" />
            <mxPoint x="240" y="250" as="targetPoint" />
          </mxGeometry>
        </mxCell>
        <mxCell id="DKl5OKaElGuwXRDvWini-39" value="1" style="resizable=0;html=1;whiteSpace=wrap;align=right;verticalAlign=bottom;" connectable="0" vertex="1" parent="DKl5OKaElGuwXRDvWini-38">
          <mxGeometry x="1" relative="1" as="geometry" />
        </mxCell>
        <mxCell id="DKl5OKaElGuwXRDvWini-41" value="" style="endArrow=none;html=1;rounded=0;" edge="1" parent="1" source="DKl5OKaElGuwXRDvWini-6" target="DKl5OKaElGuwXRDvWini-138">
          <mxGeometry relative="1" as="geometry">
            <mxPoint x="400" y="220" as="sourcePoint" />
            <mxPoint x="290" y="290" as="targetPoint" />
          </mxGeometry>
        </mxCell>
        <mxCell id="DKl5OKaElGuwXRDvWini-42" value="1" style="resizable=0;html=1;whiteSpace=wrap;align=right;verticalAlign=bottom;" connectable="0" vertex="1" parent="DKl5OKaElGuwXRDvWini-41">
          <mxGeometry x="1" relative="1" as="geometry">
            <mxPoint x="2" as="offset" />
          </mxGeometry>
        </mxCell>
        <mxCell id="DKl5OKaElGuwXRDvWini-49" value="" style="endArrow=none;html=1;rounded=0;" edge="1" parent="1" source="DKl5OKaElGuwXRDvWini-10" target="DKl5OKaElGuwXRDvWini-15">
          <mxGeometry relative="1" as="geometry">
            <mxPoint x="370" y="530" as="sourcePoint" />
            <mxPoint x="530" y="530" as="targetPoint" />
          </mxGeometry>
        </mxCell>
        <mxCell id="DKl5OKaElGuwXRDvWini-50" value="" style="endArrow=none;html=1;rounded=0;" edge="1" parent="1" source="DKl5OKaElGuwXRDvWini-10" target="DKl5OKaElGuwXRDvWini-13">
          <mxGeometry relative="1" as="geometry">
            <mxPoint x="425" y="380" as="sourcePoint" />
            <mxPoint x="585" y="380" as="targetPoint" />
          </mxGeometry>
        </mxCell>
        <mxCell id="DKl5OKaElGuwXRDvWini-53" value="Acts in" style="shape=rhombus;perimeter=rhombusPerimeter;whiteSpace=wrap;html=1;align=center;" vertex="1" parent="1">
          <mxGeometry x="570" y="340" width="120" height="60" as="geometry" />
        </mxCell>
        <mxCell id="DKl5OKaElGuwXRDvWini-56" value="title" style="ellipse;whiteSpace=wrap;html=1;align=center;" vertex="1" parent="1">
          <mxGeometry x="110" y="85" width="70" height="30" as="geometry" />
        </mxCell>
        <mxCell id="DKl5OKaElGuwXRDvWini-59" style="rounded=0;orthogonalLoop=1;jettySize=auto;html=1;endArrow=none;endFill=0;" edge="1" parent="1" source="DKl5OKaElGuwXRDvWini-136" target="DKl5OKaElGuwXRDvWini-56">
          <mxGeometry relative="1" as="geometry">
            <mxPoint x="125.93992375519701" y="120" as="sourcePoint" />
            <mxPoint x="169" y="297" as="targetPoint" />
          </mxGeometry>
        </mxCell>
        <mxCell id="DKl5OKaElGuwXRDvWini-60" style="rounded=0;orthogonalLoop=1;jettySize=auto;html=1;endArrow=none;endFill=0;" edge="1" parent="1" source="DKl5OKaElGuwXRDvWini-136" target="DKl5OKaElGuwXRDvWini-137">
          <mxGeometry relative="1" as="geometry">
            <mxPoint x="89.10271574393528" y="120" as="sourcePoint" />
            <mxPoint x="75.2940717090587" y="103.48033664844604" as="targetPoint" />
          </mxGeometry>
        </mxCell>
        <mxCell id="DKl5OKaElGuwXRDvWini-63" value="Scenes of" style="shape=rhombus;perimeter=rhombusPerimeter;whiteSpace=wrap;html=1;align=center;" vertex="1" parent="1">
          <mxGeometry x="350" y="200" width="120" height="60" as="geometry" />
        </mxCell>
        <mxCell id="DKl5OKaElGuwXRDvWini-67" value="name&lt;span style=&quot;color: rgba(0, 0, 0, 0); font-family: monospace; font-size: 0px; text-align: start; text-wrap: nowrap;&quot;&gt;%3CmxGraphModel%3E%3Croot%3E%3CmxCell%20id%3D%220%22%2F%3E%3CmxCell%20id%3D%221%22%20parent%3D%220%22%2F%3E%3CmxCell%20id%3D%222%22%20value%3D%22filming-location%22%20style%3D%22ellipse%3BwhiteSpace%3Dwrap%3Bhtml%3D1%3Balign%3Dcenter%3B%22%20vertex%3D%221%22%20parent%3D%221%22%3E%3CmxGeometry%20x%3D%22530%22%20y%3D%22410%22%20width%3D%22100%22%20height%3D%2240%22%20as%3D%22geometry%22%2F%3E%3C%2FmxCell%3E%3C%2Froot%3E%3C%2FmxGraphModel%3E&lt;/span&gt;" style="ellipse;whiteSpace=wrap;html=1;align=center;" vertex="1" parent="1">
          <mxGeometry x="540" y="530" width="80" height="30" as="geometry" />
        </mxCell>
        <mxCell id="DKl5OKaElGuwXRDvWini-68" value="phoneNumber" style="ellipse;whiteSpace=wrap;html=1;align=center;" vertex="1" parent="1">
          <mxGeometry x="580" y="570" width="90" height="30" as="geometry" />
        </mxCell>
        <mxCell id="DKl5OKaElGuwXRDvWini-69" value="adress" style="ellipse;whiteSpace=wrap;html=1;align=center;" vertex="1" parent="1">
          <mxGeometry x="630" y="535" width="90" height="30" as="geometry" />
        </mxCell>
        <mxCell id="DKl5OKaElGuwXRDvWini-70" value="agentName" style="ellipse;whiteSpace=wrap;html=1;align=center;" vertex="1" parent="1">
          <mxGeometry x="690" y="505" width="80" height="30" as="geometry" />
        </mxCell>
        <mxCell id="DKl5OKaElGuwXRDvWini-72" value="" style="endArrow=none;html=1;rounded=0;" edge="1" parent="1" source="DKl5OKaElGuwXRDvWini-17" target="DKl5OKaElGuwXRDvWini-70">
          <mxGeometry relative="1" as="geometry">
            <mxPoint x="200" y="357" as="sourcePoint" />
            <mxPoint x="257" y="353" as="targetPoint" />
          </mxGeometry>
        </mxCell>
        <mxCell id="DKl5OKaElGuwXRDvWini-73" value="" style="endArrow=none;html=1;rounded=0;" edge="1" parent="1" source="DKl5OKaElGuwXRDvWini-17" target="DKl5OKaElGuwXRDvWini-68">
          <mxGeometry relative="1" as="geometry">
            <mxPoint x="210" y="367" as="sourcePoint" />
            <mxPoint x="267" y="363" as="targetPoint" />
          </mxGeometry>
        </mxCell>
        <mxCell id="DKl5OKaElGuwXRDvWini-74" value="" style="endArrow=none;html=1;rounded=0;" edge="1" parent="1" source="DKl5OKaElGuwXRDvWini-17" target="DKl5OKaElGuwXRDvWini-67">
          <mxGeometry relative="1" as="geometry">
            <mxPoint x="203" y="404" as="sourcePoint" />
            <mxPoint x="260" y="400" as="targetPoint" />
          </mxGeometry>
        </mxCell>
        <mxCell id="DKl5OKaElGuwXRDvWini-75" value="" style="endArrow=none;html=1;rounded=0;" edge="1" parent="1" source="DKl5OKaElGuwXRDvWini-17" target="DKl5OKaElGuwXRDvWini-69">
          <mxGeometry relative="1" as="geometry">
            <mxPoint x="230" y="387" as="sourcePoint" />
            <mxPoint x="287" y="383" as="targetPoint" />
          </mxGeometry>
        </mxCell>
        <mxCell id="DKl5OKaElGuwXRDvWini-77" value="Has Takes" style="shape=rhombus;double=1;perimeter=rhombusPerimeter;whiteSpace=wrap;html=1;align=center;" vertex="1" parent="1">
          <mxGeometry x="420" y="290" width="120" height="60" as="geometry" />
        </mxCell>
        <mxCell id="DKl5OKaElGuwXRDvWini-82" value="" style="endArrow=none;html=1;rounded=0;" edge="1" parent="1" source="DKl5OKaElGuwXRDvWini-6" target="DKl5OKaElGuwXRDvWini-63">
          <mxGeometry relative="1" as="geometry">
            <mxPoint x="260" y="240" as="sourcePoint" />
            <mxPoint x="420" y="240" as="targetPoint" />
          </mxGeometry>
        </mxCell>
        <mxCell id="DKl5OKaElGuwXRDvWini-83" value="1" style="resizable=0;html=1;whiteSpace=wrap;align=right;verticalAlign=bottom;" connectable="0" vertex="1" parent="DKl5OKaElGuwXRDvWini-82">
          <mxGeometry x="1" relative="1" as="geometry">
            <mxPoint as="offset" />
          </mxGeometry>
        </mxCell>
        <mxCell id="DKl5OKaElGuwXRDvWini-84" value="" style="endArrow=none;html=1;rounded=0;" edge="1" parent="1" source="DKl5OKaElGuwXRDvWini-10" target="DKl5OKaElGuwXRDvWini-63">
          <mxGeometry relative="1" as="geometry">
            <mxPoint x="475" y="290" as="sourcePoint" />
            <mxPoint x="475" y="345" as="targetPoint" />
          </mxGeometry>
        </mxCell>
        <mxCell id="DKl5OKaElGuwXRDvWini-85" value="N" style="resizable=0;html=1;whiteSpace=wrap;align=right;verticalAlign=bottom;" connectable="0" vertex="1" parent="DKl5OKaElGuwXRDvWini-84">
          <mxGeometry x="1" relative="1" as="geometry">
            <mxPoint x="5" as="offset" />
          </mxGeometry>
        </mxCell>
        <mxCell id="DKl5OKaElGuwXRDvWini-88" value="actorID" style="ellipse;whiteSpace=wrap;html=1;align=center;fontStyle=4" vertex="1" parent="1">
          <mxGeometry x="700" y="460" width="100" height="40" as="geometry" />
        </mxCell>
        <mxCell id="DKl5OKaElGuwXRDvWini-89" value="" style="endArrow=none;html=1;rounded=0;" edge="1" parent="1" target="DKl5OKaElGuwXRDvWini-88" source="DKl5OKaElGuwXRDvWini-17">
          <mxGeometry relative="1" as="geometry">
            <mxPoint x="522" y="520" as="sourcePoint" />
            <mxPoint x="177" y="353" as="targetPoint" />
          </mxGeometry>
        </mxCell>
        <mxCell id="DKl5OKaElGuwXRDvWini-90" value="" style="endArrow=none;html=1;rounded=0;" edge="1" parent="1" source="DKl5OKaElGuwXRDvWini-10" target="DKl5OKaElGuwXRDvWini-53">
          <mxGeometry relative="1" as="geometry">
            <mxPoint x="355" y="419.65999999999997" as="sourcePoint" />
            <mxPoint x="515" y="419.65999999999997" as="targetPoint" />
          </mxGeometry>
        </mxCell>
        <mxCell id="DKl5OKaElGuwXRDvWini-91" value="N" style="resizable=0;html=1;whiteSpace=wrap;align=right;verticalAlign=bottom;" connectable="0" vertex="1" parent="DKl5OKaElGuwXRDvWini-90">
          <mxGeometry x="1" relative="1" as="geometry">
            <mxPoint x="-4" y="5" as="offset" />
          </mxGeometry>
        </mxCell>
        <mxCell id="DKl5OKaElGuwXRDvWini-92" value="" style="endArrow=none;html=1;rounded=0;" edge="1" parent="1" source="DKl5OKaElGuwXRDvWini-17" target="DKl5OKaElGuwXRDvWini-53">
          <mxGeometry relative="1" as="geometry">
            <mxPoint x="610.92" y="544.21" as="sourcePoint" />
            <mxPoint x="449.0778947368421" y="575.7889473684211" as="targetPoint" />
          </mxGeometry>
        </mxCell>
        <mxCell id="DKl5OKaElGuwXRDvWini-93" value="N" style="resizable=0;html=1;whiteSpace=wrap;align=right;verticalAlign=bottom;" connectable="0" vertex="1" parent="DKl5OKaElGuwXRDvWini-92">
          <mxGeometry x="1" relative="1" as="geometry">
            <mxPoint x="12" y="20" as="offset" />
          </mxGeometry>
        </mxCell>
        <mxCell id="DKl5OKaElGuwXRDvWini-101" value="" style="endArrow=none;html=1;rounded=0;" edge="1" parent="1" source="DKl5OKaElGuwXRDvWini-20" target="DKl5OKaElGuwXRDvWini-77">
          <mxGeometry relative="1" as="geometry">
            <mxPoint x="-2.5" y="440" as="sourcePoint" />
            <mxPoint x="157.5" y="440" as="targetPoint" />
          </mxGeometry>
        </mxCell>
        <mxCell id="DKl5OKaElGuwXRDvWini-102" value="N" style="resizable=0;html=1;whiteSpace=wrap;align=right;verticalAlign=bottom;" connectable="0" vertex="1" parent="DKl5OKaElGuwXRDvWini-101">
          <mxGeometry x="1" relative="1" as="geometry">
            <mxPoint x="-21" y="8" as="offset" />
          </mxGeometry>
        </mxCell>
        <mxCell id="DKl5OKaElGuwXRDvWini-103" value="" style="endArrow=none;html=1;rounded=0;" edge="1" parent="1" source="DKl5OKaElGuwXRDvWini-10" target="DKl5OKaElGuwXRDvWini-77">
          <mxGeometry relative="1" as="geometry">
            <mxPoint x="190" y="320" as="sourcePoint" />
            <mxPoint x="350" y="320" as="targetPoint" />
          </mxGeometry>
        </mxCell>
        <mxCell id="DKl5OKaElGuwXRDvWini-104" value="1" style="resizable=0;html=1;whiteSpace=wrap;align=right;verticalAlign=bottom;" connectable="0" vertex="1" parent="DKl5OKaElGuwXRDvWini-103">
          <mxGeometry x="1" relative="1" as="geometry">
            <mxPoint x="2" as="offset" />
          </mxGeometry>
        </mxCell>
        <mxCell id="DKl5OKaElGuwXRDvWini-106" value="sceneID" style="ellipse;whiteSpace=wrap;html=1;align=center;fontStyle=4" vertex="1" parent="1">
          <mxGeometry x="650" y="135" width="100" height="40" as="geometry" />
        </mxCell>
        <mxCell id="DKl5OKaElGuwXRDvWini-107" value="" style="endArrow=none;html=1;rounded=0;" edge="1" parent="1" source="DKl5OKaElGuwXRDvWini-10" target="DKl5OKaElGuwXRDvWini-106">
          <mxGeometry relative="1" as="geometry">
            <mxPoint x="485" y="344" as="sourcePoint" />
            <mxPoint x="521" y="333" as="targetPoint" />
          </mxGeometry>
        </mxCell>
        <mxCell id="DKl5OKaElGuwXRDvWini-111" value="" style="endArrow=none;html=1;rounded=0;shape=link;" edge="1" parent="1" source="DKl5OKaElGuwXRDvWini-136" target="DKl5OKaElGuwXRDvWini-114">
          <mxGeometry relative="1" as="geometry">
            <mxPoint x="111.5625" y="170" as="sourcePoint" />
            <mxPoint x="470" y="370" as="targetPoint" />
          </mxGeometry>
        </mxCell>
        <mxCell id="DKl5OKaElGuwXRDvWini-112" value="1" style="resizable=0;html=1;whiteSpace=wrap;align=right;verticalAlign=bottom;" connectable="0" vertex="1" parent="DKl5OKaElGuwXRDvWini-111">
          <mxGeometry x="1" relative="1" as="geometry">
            <mxPoint x="-2" as="offset" />
          </mxGeometry>
        </mxCell>
        <mxCell id="DKl5OKaElGuwXRDvWini-114" value="CutList" style="shape=associativeEntity;whiteSpace=wrap;html=1;align=center;" vertex="1" parent="1">
          <mxGeometry x="60" y="280" width="120" height="50" as="geometry" />
        </mxCell>
        <mxCell id="DKl5OKaElGuwXRDvWini-115" value="" style="endArrow=none;html=1;rounded=0;entryX=1;entryY=1;entryDx=0;entryDy=0;" edge="1" parent="1" source="DKl5OKaElGuwXRDvWini-20" target="DKl5OKaElGuwXRDvWini-114">
          <mxGeometry relative="1" as="geometry">
            <mxPoint x="310" y="380" as="sourcePoint" />
            <mxPoint x="470" y="380" as="targetPoint" />
          </mxGeometry>
        </mxCell>
        <mxCell id="DKl5OKaElGuwXRDvWini-116" value="N" style="resizable=0;html=1;whiteSpace=wrap;align=right;verticalAlign=bottom;" connectable="0" vertex="1" parent="DKl5OKaElGuwXRDvWini-115">
          <mxGeometry x="1" relative="1" as="geometry">
            <mxPoint x="17" y="5" as="offset" />
          </mxGeometry>
        </mxCell>
        <mxCell id="DKl5OKaElGuwXRDvWini-119" value="orderNumber" style="ellipse;whiteSpace=wrap;html=1;align=center;" vertex="1" parent="1">
          <mxGeometry x="30" y="350" width="100" height="40" as="geometry" />
        </mxCell>
        <mxCell id="DKl5OKaElGuwXRDvWini-120" value="" style="endArrow=none;html=1;rounded=0;" edge="1" parent="1" source="DKl5OKaElGuwXRDvWini-114" target="DKl5OKaElGuwXRDvWini-119">
          <mxGeometry relative="1" as="geometry">
            <mxPoint x="310" y="380" as="sourcePoint" />
            <mxPoint x="470" y="380" as="targetPoint" />
          </mxGeometry>
        </mxCell>
        <mxCell id="DKl5OKaElGuwXRDvWini-132" value="&lt;span style=&quot;border-bottom: 1px dotted&quot;&gt;takeNumber&lt;/span&gt;" style="ellipse;whiteSpace=wrap;html=1;align=center;" vertex="1" parent="1">
          <mxGeometry x="270" y="420" width="90" height="30" as="geometry" />
        </mxCell>
        <mxCell id="DKl5OKaElGuwXRDvWini-133" value="" style="endArrow=none;html=1;rounded=0;" edge="1" parent="1" source="DKl5OKaElGuwXRDvWini-20" target="DKl5OKaElGuwXRDvWini-132">
          <mxGeometry relative="1" as="geometry">
            <mxPoint x="330" y="400" as="sourcePoint" />
            <mxPoint x="340" y="420" as="targetPoint" />
          </mxGeometry>
        </mxCell>
        <mxCell id="DKl5OKaElGuwXRDvWini-136" value="Movie" style="shape=ext;margin=3;whiteSpace=wrap;html=1;align=center;" vertex="1" parent="1">
          <mxGeometry x="60" y="125" width="100" height="40" as="geometry" />
        </mxCell>
        <mxCell id="DKl5OKaElGuwXRDvWini-137" value="movieID" style="ellipse;whiteSpace=wrap;html=1;align=center;fontStyle=4" vertex="1" parent="1">
          <mxGeometry x="20" y="70" width="90" height="30" as="geometry" />
        </mxCell>
        <mxCell id="DKl5OKaElGuwXRDvWini-138" value="Based on" style="shape=rhombus;perimeter=rhombusPerimeter;whiteSpace=wrap;html=1;align=center;" vertex="1" parent="1">
          <mxGeometry x="200" y="115" width="120" height="60" as="geometry" />
        </mxCell>
        <mxCell id="DKl5OKaElGuwXRDvWini-141" value="actorID" style="ellipse;whiteSpace=wrap;html=1;align=center;fontStyle=0" vertex="1" parent="1">
          <mxGeometry x="698" y="380" width="64" height="30" as="geometry" />
        </mxCell>
        <mxCell id="DKl5OKaElGuwXRDvWini-142" value="" style="endArrow=none;html=1;rounded=0;fontStyle=0" edge="1" parent="1" target="DKl5OKaElGuwXRDvWini-141" source="DKl5OKaElGuwXRDvWini-53">
          <mxGeometry relative="1" as="geometry">
            <mxPoint x="681" y="390" as="sourcePoint" />
            <mxPoint x="188" y="263" as="targetPoint" />
          </mxGeometry>
        </mxCell>
        <mxCell id="DKl5OKaElGuwXRDvWini-143" value="sceneID" style="ellipse;whiteSpace=wrap;html=1;align=center;fontStyle=0" vertex="1" parent="1">
          <mxGeometry x="695" y="330" width="70" height="30" as="geometry" />
        </mxCell>
        <mxCell id="DKl5OKaElGuwXRDvWini-144" value="" style="endArrow=none;html=1;rounded=0;fontStyle=0;" edge="1" parent="1" source="DKl5OKaElGuwXRDvWini-53" target="DKl5OKaElGuwXRDvWini-143">
          <mxGeometry relative="1" as="geometry">
            <mxPoint x="674" y="393" as="sourcePoint" />
            <mxPoint x="705" y="405" as="targetPoint" />
          </mxGeometry>
        </mxCell>
      </root>
    </mxGraphModel>
  </diagram>
</mxfile>
